{
	"asset":{
		"generator":"Khronos glTF Blender I/O v4.4.56",
		"version":"2.0"
	},
	"scene":0,
	"scenes":[
		{
			"name":"Scene",
			"nodes":[
				3
			]
		}
	],
	"nodes":[
		{
			"mesh":0,
			"name":"head"
		},
		{
			"mesh":1,
			"name":"left_arm"
		},
		{
			"mesh":2,
			"name":"right_arm"
		},
		{
			"children":[
				0,
				1,
				2
			],
			"mesh":3,
			"name":"body"
		}
	],
	"animations":[
		{
			"channels":[
				{
					"sampler":0,
					"target":{
						"node":3,
						"path":"translation"
					}
				},
				{
					"sampler":1,
					"target":{
						"node":3,
						"path":"rotation"
					}
				},
				{
					"sampler":2,
					"target":{
						"node":0,
						"path":"translation"
					}
				},
				{
					"sampler":3,
					"target":{
						"node":0,
						"path":"rotation"
					}
				},
				{
					"sampler":4,
					"target":{
						"node":1,
						"path":"translation"
					}
				},
				{
					"sampler":5,
					"target":{
						"node":1,
						"path":"rotation"
					}
				},
				{
					"sampler":6,
					"target":{
						"node":2,
						"path":"translation"
					}
				},
				{
					"sampler":7,
					"target":{
						"node":2,
						"path":"rotation"
					}
				}
			],
			"name":"BossIdleAnimation_All",
			"samplers":[
				{
					"input":15,
					"interpolation":"LINEAR",
					"output":16
				},
				{
					"input":17,
					"interpolation":"STEP",
					"output":18
				},
				{
					"input":15,
					"interpolation":"LINEAR",
					"output":19
				},
				{
					"input":17,
					"interpolation":"STEP",
					"output":20
				},
				{
					"input":15,
					"interpolation":"LINEAR",
					"output":21
				},
				{
					"input":17,
					"interpolation":"STEP",
					"output":22
				},
				{
					"input":15,
					"interpolation":"LINEAR",
					"output":23
				},
				{
					"input":17,
					"interpolation":"STEP",
					"output":24
				}
			]
		},
		{
			"channels":[
				{
					"sampler":0,
					"target":{
						"node":3,
						"path":"translation"
					}
				},
				{
					"sampler":1,
					"target":{
						"node":3,
						"path":"rotation"
					}
				},
				{
					"sampler":2,
					"target":{
						"node":0,
						"path":"translation"
					}
				},
				{
					"sampler":3,
					"target":{
						"node":0,
						"path":"rotation"
					}
				},
				{
					"sampler":4,
					"target":{
						"node":1,
						"path":"translation"
					}
				},
				{
					"sampler":5,
					"target":{
						"node":1,
						"path":"rotation"
					}
				},
				{
					"sampler":6,
					"target":{
						"node":2,
						"path":"translation"
					}
				},
				{
					"sampler":7,
					"target":{
						"node":2,
						"path":"rotation"
					}
				}
			],
			"name":"CollapseAnimation_All",
			"samplers":[
				{
					"input":17,
					"interpolation":"STEP",
					"output":25
				},
				{
					"input":15,
					"interpolation":"LINEAR",
					"output":26
				},
				{
					"input":17,
					"interpolation":"STEP",
					"output":27
				},
				{
					"input":17,
					"interpolation":"STEP",
					"output":28
				},
				{
					"input":17,
					"interpolation":"STEP",
					"output":29
				},
				{
					"input":17,
					"interpolation":"STEP",
					"output":30
				},
				{
					"input":17,
					"interpolation":"STEP",
					"output":31
				},
				{
					"input":17,
					"interpolation":"STEP",
					"output":32
				}
			]
		}
	],
	"materials":[
		{
			"doubleSided":true,
			"name":"Material",
			"pbrMetallicRoughness":{
				"baseColorFactor":[
					0.7990987300872803,
					0.1119324192404747,
					0.12477187812328339,
					1
				],
				"metallicFactor":0,
				"roughnessFactor":0.5
			}
		},
		{
			"doubleSided":true,
			"name":"Material.003",
			"pbrMetallicRoughness":{
				"baseColorFactor":[
					0.7990987300872803,
					0.1119324192404747,
					0.12477187812328339,
					1
				],
				"metallicFactor":0,
				"roughnessFactor":0.5
			}
		},
		{
			"doubleSided":true,
			"name":"Material.002",
			"pbrMetallicRoughness":{
				"baseColorFactor":[
					0.7990987300872803,
					0.1119324192404747,
					0.12477187812328339,
					1
				],
				"metallicFactor":0,
				"roughnessFactor":0.5
			}
		},
		{
			"doubleSided":true,
			"name":"Material.001",
			"pbrMetallicRoughness":{
				"baseColorFactor":[
					0.7990987300872803,
					0.1119324192404747,
					0.12477187812328339,
					1
				],
				"metallicFactor":0,
				"roughnessFactor":0.5
			}
		}
	],
	"meshes":[
		{
			"name":"Cube",
			"primitives":[
				{
					"attributes":{
						"POSITION":0,
						"NORMAL":1,
						"TEXCOORD_0":2
					},
					"indices":3,
					"material":0
				}
			]
		},
		{
			"name":"Cube.003",
			"primitives":[
				{
					"attributes":{
						"POSITION":4,
						"NORMAL":5,
						"TEXCOORD_0":6
					},
					"indices":7,
					"material":1
				}
			]
		},
		{
			"name":"Cube.002",
			"primitives":[
				{
					"attributes":{
						"POSITION":8,
						"NORMAL":9,
						"TEXCOORD_0":10
					},
					"indices":11,
					"material":2
				}
			]
		},
		{
			"name":"Cube.001",
			"primitives":[
				{
					"attributes":{
						"POSITION":12,
						"NORMAL":13,
						"TEXCOORD_0":14
					},
					"indices":3,
					"material":3
				}
			]
		}
	],
	"accessors":[
		{
			"bufferView":0,
			"componentType":5126,
			"count":24,
			"max":[
				1.2448416948318481,
				8.81167984008789,
				1.2000000476837158
			],
			"min":[
				-1.1551584005355835,
				6.7716803550720215,
				-1.2000000476837158
			],
			"type":"VEC3"
		},
		{
			"bufferView":1,
			"componentType":5126,
			"count":24,
			"type":"VEC3"
		},
		{
			"bufferView":2,
			"componentType":5126,
			"count":24,
			"type":"VEC2"
		},
		{
			"bufferView":3,
			"componentType":5123,
			"count":36,
			"type":"SCALAR"
		},
		{
			"bufferView":4,
			"componentType":5126,
			"count":24,
			"max":[
				6.877180576324463,
				5.276155471801758,
				0.800000011920929
			],
			"min":[
				2.156019687652588,
				1.7238447666168213,
				-0.800000011920929
			],
			"type":"VEC3"
		},
		{
			"bufferView":5,
			"componentType":5126,
			"count":24,
			"type":"VEC3"
		},
		{
			"bufferView":6,
			"componentType":5126,
			"count":24,
			"type":"VEC2"
		},
		{
			"bufferView":7,
			"componentType":5123,
			"count":36,
			"type":"SCALAR"
		},
		{
			"bufferView":8,
			"componentType":5126,
			"count":24,
			"max":[
				-2.156019687652588,
				5.276155471801758,
				0.800000011920929
			],
			"min":[
				-6.877180576324463,
				1.7238447666168213,
				-0.800000011920929
			],
			"type":"VEC3"
		},
		{
			"bufferView":9,
			"componentType":5126,
			"count":24,
			"type":"VEC3"
		},
		{
			"bufferView":10,
			"componentType":5126,
			"count":24,
			"type":"VEC2"
		},
		{
			"bufferView":11,
			"componentType":5123,
			"count":36,
			"type":"SCALAR"
		},
		{
			"bufferView":12,
			"componentType":5126,
			"count":24,
			"max":[
				2,
				6.255000114440918,
				1.5
			],
			"min":[
				-2,
				0.30499982833862305,
				-1.5
			],
			"type":"VEC3"
		},
		{
			"bufferView":13,
			"componentType":5126,
			"count":24,
			"type":"VEC3"
		},
		{
			"bufferView":14,
			"componentType":5126,
			"count":24,
			"type":"VEC2"
		},
		{
			"bufferView":15,
			"componentType":5126,
			"count":60,
			"max":[
				0.9833333333333333
			],
			"min":[
				0
			],
			"type":"SCALAR"
		},
		{
			"bufferView":16,
			"componentType":5126,
			"count":60,
			"type":"VEC3"
		},
		{
			"bufferView":17,
			"componentType":5126,
			"count":2,
			"max":[
				0.9833333333333333
			],
			"min":[
				0
			],
			"type":"SCALAR"
		},
		{
			"bufferView":18,
			"componentType":5126,
			"count":2,
			"type":"VEC4"
		},
		{
			"bufferView":19,
			"componentType":5126,
			"count":60,
			"type":"VEC3"
		},
		{
			"bufferView":20,
			"componentType":5126,
			"count":2,
			"type":"VEC4"
		},
		{
			"bufferView":21,
			"componentType":5126,
			"count":60,
			"type":"VEC3"
		},
		{
			"bufferView":22,
			"componentType":5126,
			"count":2,
			"type":"VEC4"
		},
		{
			"bufferView":23,
			"componentType":5126,
			"count":60,
			"type":"VEC3"
		},
		{
			"bufferView":24,
			"componentType":5126,
			"count":2,
			"type":"VEC4"
		},
		{
			"bufferView":25,
			"componentType":5126,
			"count":2,
			"type":"VEC3"
		},
		{
			"bufferView":26,
			"componentType":5126,
			"count":60,
			"type":"VEC4"
		},
		{
			"bufferView":27,
			"componentType":5126,
			"count":2,
			"type":"VEC3"
		},
		{
			"bufferView":28,
			"componentType":5126,
			"count":2,
			"type":"VEC4"
		},
		{
			"bufferView":29,
			"componentType":5126,
			"count":2,
			"type":"VEC3"
		},
		{
			"bufferView":30,
			"componentType":5126,
			"count":2,
			"type":"VEC4"
		},
		{
			"bufferView":31,
			"componentType":5126,
			"count":2,
			"type":"VEC3"
		},
		{
			"bufferView":32,
			"componentType":5126,
			"count":2,
			"type":"VEC4"
		}
	],
	"bufferViews":[
		{
			"buffer":0,
			"byteLength":288,
			"byteOffset":0,
			"target":34962
		},
		{
			"buffer":0,
			"byteLength":288,
			"byteOffset":288,
			"target":34962
		},
		{
			"buffer":0,
			"byteLength":192,
			"byteOffset":576,
			"target":34962
		},
		{
			"buffer":0,
			"byteLength":72,
			"byteOffset":768,
			"target":34963
		},
		{
			"buffer":0,
			"byteLength":288,
			"byteOffset":840,
			"target":34962
		},
		{
			"buffer":0,
			"byteLength":288,
			"byteOffset":1128,
			"target":34962
		},
		{
			"buffer":0,
			"byteLength":192,
			"byteOffset":1416,
			"target":34962
		},
		{
			"buffer":0,
			"byteLength":72,
			"byteOffset":1608,
			"target":34963
		},
		{
			"buffer":0,
			"byteLength":288,
			"byteOffset":1680,
			"target":34962
		},
		{
			"buffer":0,
			"byteLength":288,
			"byteOffset":1968,
			"target":34962
		},
		{
			"buffer":0,
			"byteLength":192,
			"byteOffset":2256,
			"target":34962
		},
		{
			"buffer":0,
			"byteLength":72,
			"byteOffset":2448,
			"target":34963
		},
		{
			"buffer":0,
			"byteLength":288,
			"byteOffset":2520,
			"target":34962
		},
		{
			"buffer":0,
			"byteLength":288,
			"byteOffset":2808,
			"target":34962
		},
		{
			"buffer":0,
			"byteLength":192,
			"byteOffset":3096,
			"target":34962
		},
		{
			"buffer":0,
			"byteLength":240,
			"byteOffset":3288
		},
		{
			"buffer":0,
			"byteLength":720,
			"byteOffset":3528
		},
		{
			"buffer":0,
			"byteLength":8,
			"byteOffset":4248
		},
		{
			"buffer":0,
			"byteLength":32,
			"byteOffset":4256
		},
		{
			"buffer":0,
			"byteLength":720,
			"byteOffset":4288
		},
		{
			"buffer":0,
			"byteLength":32,
			"byteOffset":5008
		},
		{
			"buffer":0,
			"byteLength":720,
			"byteOffset":5040
		},
		{
			"buffer":0,
			"byteLength":32,
			"byteOffset":5760
		},
		{
			"buffer":0,
			"byteLength":720,
			"byteOffset":5792
		},
		{
			"buffer":0,
			"byteLength":32,
			"byteOffset":6512
		},
		{
			"buffer":0,
			"byteLength":24,
			"byteOffset":6544
		},
		{
			"buffer":0,
			"byteLength":960,
			"byteOffset":6568
		},
		{
			"buffer":0,
			"byteLength":24,
			"byteOffset":7528
		},
		{
			"buffer":0,
			"byteLength":32,
			"byteOffset":7552
		},
		{
			"buffer":0,
			"byteLength":24,
			"byteOffset":7584
		},
		{
			"buffer":0,
			"byteLength":32,
			"byteOffset":7608
		},
		{
			"buffer":0,
			"byteLength":24,
			"byteOffset":7640
		},
		{
			"buffer":0,
			"byteLength":32,
			"byteOffset":7664
		}
	],
	"buffers":[
		{
			"byteLength":7696,
			"uri":"newBoss.bin"
		}
	]
}
