{
	"asset":{
		"generator":"Khronos glTF Blender I/O v4.4.56",
		"version":"2.0"
	},
	"scene":0,
	"scenes":[
		{
			"name":"Scene",
			"nodes":[
				3
			]
		}
	],
	"nodes":[
		{
			"mesh":0,
			"name":"head",
			"translation":[
				0.04484166204929352,
				5.261665344238281,
				0
			]
		},
		{
			"mesh":1,
			"name":"left_arm",
			"rotation":[
				0,
				0,
				-0.25939035415649414,
				0.9657725691795349
			],
			"translation":[
				4.516600131988525,
				0.2200000286102295,
				0
			]
		},
		{
			"mesh":2,
			"name":"right_arm",
			"rotation":[
				0,
				0,
				0.25939035415649414,
				0.9657725691795349
			],
			"translation":[
				-4.516600131988525,
				0.2200000286102295,
				0
			]
		},
		{
			"children":[
				0,
				1,
				2
			],
			"mesh":3,
			"name":"body",
			"translation":[
				0,
				3.2799999713897705,
				0
			]
		}
	],
	"animations":[
		{
			"channels":[
				{
					"sampler":0,
					"target":{
						"node":3,
						"path":"translation"
					}
				},
				{
					"sampler":1,
					"target":{
						"node":3,
						"path":"rotation"
					}
				}
			],
			"name":"body\u30a2\u30af\u30b7\u30e7\u30f3",
			"samplers":[
				{
					"input":13,
					"interpolation":"LINEAR",
					"output":14
				},
				{
					"input":15,
					"interpolation":"STEP",
					"output":16
				}
			]
		},
		{
			"channels":[
				{
					"sampler":0,
					"target":{
						"node":0,
						"path":"translation"
					}
				},
				{
					"sampler":1,
					"target":{
						"node":0,
						"path":"rotation"
					}
				}
			],
			"name":"head\u30a2\u30af\u30b7\u30e7\u30f3",
			"samplers":[
				{
					"input":15,
					"interpolation":"LINEAR",
					"output":17
				},
				{
					"input":13,
					"interpolation":"LINEAR",
					"output":18
				}
			]
		},
		{
			"channels":[
				{
					"sampler":0,
					"target":{
						"node":1,
						"path":"translation"
					}
				}
			],
			"name":"left_arm\u30a2\u30af\u30b7\u30e7\u30f3.004",
			"samplers":[
				{
					"input":13,
					"interpolation":"LINEAR",
					"output":19
				}
			]
		},
		{
			"channels":[
				{
					"sampler":0,
					"target":{
						"node":2,
						"path":"translation"
					}
				}
			],
			"name":"right_arm\u30a2\u30af\u30b7\u30e7\u30f3.004",
			"samplers":[
				{
					"input":13,
					"interpolation":"LINEAR",
					"output":20
				}
			]
		}
	],
	"materials":[
		{
			"doubleSided":true,
			"name":"Material",
			"pbrMetallicRoughness":{
				"baseColorFactor":[
					0.8002511262893677,
					0.11070382595062256,
					0.1250237673521042,
					1
				],
				"metallicFactor":0,
				"roughnessFactor":0.5
			}
		},
		{
			"doubleSided":true,
			"name":"Material.003",
			"pbrMetallicRoughness":{
				"baseColorFactor":[
					0.800000011920929,
					0.800000011920929,
					0.800000011920929,
					1
				],
				"metallicFactor":0,
				"roughnessFactor":0.5
			}
		},
		{
			"doubleSided":true,
			"name":"Material.002",
			"pbrMetallicRoughness":{
				"baseColorFactor":[
					0.800000011920929,
					0.800000011920929,
					0.800000011920929,
					1
				],
				"metallicFactor":0,
				"roughnessFactor":0.5
			}
		},
		{
			"doubleSided":true,
			"name":"Material.001",
			"pbrMetallicRoughness":{
				"baseColorFactor":[
					0.800000011920929,
					0.800000011920929,
					0.800000011920929,
					1
				],
				"metallicFactor":0,
				"roughnessFactor":0.5
			}
		}
	],
	"meshes":[
		{
			"name":"Cube",
			"primitives":[
				{
					"attributes":{
						"POSITION":0,
						"NORMAL":1,
						"TEXCOORD_0":2
					},
					"indices":3,
					"material":0
				}
			]
		},
		{
			"name":"Cube.003",
			"primitives":[
				{
					"attributes":{
						"POSITION":4,
						"NORMAL":5,
						"TEXCOORD_0":6
					},
					"indices":3,
					"material":1
				}
			]
		},
		{
			"name":"Cube.002",
			"primitives":[
				{
					"attributes":{
						"POSITION":7,
						"NORMAL":8,
						"TEXCOORD_0":9
					},
					"indices":3,
					"material":2
				}
			]
		},
		{
			"name":"Cube.001",
			"primitives":[
				{
					"attributes":{
						"POSITION":10,
						"NORMAL":11,
						"TEXCOORD_0":12
					},
					"indices":3,
					"material":3
				}
			]
		}
	],
	"accessors":[
		{
			"bufferView":0,
			"componentType":5126,
			"count":24,
			"max":[
				1.2000000476837158,
				1.0199999809265137,
				1.2000000476837158
			],
			"min":[
				-1.2000000476837158,
				-1.0199999809265137,
				-1.2000000476837158
			],
			"type":"VEC3"
		},
		{
			"bufferView":1,
			"componentType":5126,
			"count":24,
			"type":"VEC3"
		},
		{
			"bufferView":2,
			"componentType":5126,
			"count":24,
			"type":"VEC2"
		},
		{
			"bufferView":3,
			"componentType":5123,
			"count":36,
			"type":"SCALAR"
		},
		{
			"bufferView":4,
			"componentType":5126,
			"count":24,
			"max":[
				2.315552234649658,
				0.7117909789085388,
				0.800000011920929
			],
			"min":[
				-2.315552234649658,
				-0.7117909789085388,
				-0.800000011920929
			],
			"type":"VEC3"
		},
		{
			"bufferView":5,
			"componentType":5126,
			"count":24,
			"type":"VEC3"
		},
		{
			"bufferView":6,
			"componentType":5126,
			"count":24,
			"type":"VEC2"
		},
		{
			"bufferView":7,
			"componentType":5126,
			"count":24,
			"max":[
				2.315552234649658,
				0.7117909789085388,
				0.800000011920929
			],
			"min":[
				-2.315552234649658,
				-0.7117909789085388,
				-0.800000011920929
			],
			"type":"VEC3"
		},
		{
			"bufferView":8,
			"componentType":5126,
			"count":24,
			"type":"VEC3"
		},
		{
			"bufferView":9,
			"componentType":5126,
			"count":24,
			"type":"VEC2"
		},
		{
			"bufferView":10,
			"componentType":5126,
			"count":24,
			"max":[
				2,
				2.9750001430511475,
				1.5
			],
			"min":[
				-2,
				-2.9750001430511475,
				-1.5
			],
			"type":"VEC3"
		},
		{
			"bufferView":11,
			"componentType":5126,
			"count":24,
			"type":"VEC3"
		},
		{
			"bufferView":12,
			"componentType":5126,
			"count":24,
			"type":"VEC2"
		},
		{
			"bufferView":13,
			"componentType":5126,
			"count":61,
			"max":[
				2.5416666666666665
			],
			"min":[
				0.041666666666666664
			],
			"type":"SCALAR"
		},
		{
			"bufferView":14,
			"componentType":5126,
			"count":61,
			"type":"VEC3"
		},
		{
			"bufferView":15,
			"componentType":5126,
			"count":2,
			"max":[
				2.5416666666666665
			],
			"min":[
				0.041666666666666664
			],
			"type":"SCALAR"
		},
		{
			"bufferView":16,
			"componentType":5126,
			"count":2,
			"type":"VEC4"
		},
		{
			"bufferView":17,
			"componentType":5126,
			"count":2,
			"type":"VEC3"
		},
		{
			"bufferView":18,
			"componentType":5126,
			"count":61,
			"type":"VEC4"
		},
		{
			"bufferView":19,
			"componentType":5126,
			"count":61,
			"type":"VEC3"
		},
		{
			"bufferView":20,
			"componentType":5126,
			"count":61,
			"type":"VEC3"
		}
	],
	"bufferViews":[
		{
			"buffer":0,
			"byteLength":288,
			"byteOffset":0,
			"target":34962
		},
		{
			"buffer":0,
			"byteLength":288,
			"byteOffset":288,
			"target":34962
		},
		{
			"buffer":0,
			"byteLength":192,
			"byteOffset":576,
			"target":34962
		},
		{
			"buffer":0,
			"byteLength":72,
			"byteOffset":768,
			"target":34963
		},
		{
			"buffer":0,
			"byteLength":288,
			"byteOffset":840,
			"target":34962
		},
		{
			"buffer":0,
			"byteLength":288,
			"byteOffset":1128,
			"target":34962
		},
		{
			"buffer":0,
			"byteLength":192,
			"byteOffset":1416,
			"target":34962
		},
		{
			"buffer":0,
			"byteLength":288,
			"byteOffset":1608,
			"target":34962
		},
		{
			"buffer":0,
			"byteLength":288,
			"byteOffset":1896,
			"target":34962
		},
		{
			"buffer":0,
			"byteLength":192,
			"byteOffset":2184,
			"target":34962
		},
		{
			"buffer":0,
			"byteLength":288,
			"byteOffset":2376,
			"target":34962
		},
		{
			"buffer":0,
			"byteLength":288,
			"byteOffset":2664,
			"target":34962
		},
		{
			"buffer":0,
			"byteLength":192,
			"byteOffset":2952,
			"target":34962
		},
		{
			"buffer":0,
			"byteLength":244,
			"byteOffset":3144
		},
		{
			"buffer":0,
			"byteLength":732,
			"byteOffset":3388
		},
		{
			"buffer":0,
			"byteLength":8,
			"byteOffset":4120
		},
		{
			"buffer":0,
			"byteLength":32,
			"byteOffset":4128
		},
		{
			"buffer":0,
			"byteLength":24,
			"byteOffset":4160
		},
		{
			"buffer":0,
			"byteLength":976,
			"byteOffset":4184
		},
		{
			"buffer":0,
			"byteLength":732,
			"byteOffset":5160
		},
		{
			"buffer":0,
			"byteLength":732,
			"byteOffset":5892
		}
	],
	"buffers":[
		{
			"byteLength":6624,
			"uri":"Boss.bin"
		}
	]
}
